<?xml version="1.0" encoding="UTF-8" standalone="no"?>
<!DOCTYPE svg PUBLIC "-//W3C//DTD SVG 1.1//EN"
 "http://www.w3.org/Graphics/SVG/1.1/DTD/svg11.dtd">
<!-- Generated by graphviz version 14.1.1 (20251213.1925)
 -->
<!-- Title: BinaryMultiplierTM Pages: 1 -->
<svg width="2079pt" height="304pt"
 viewBox="0.00 0.00 2079.00 304.00" xmlns="http://www.w3.org/2000/svg" xmlns:xlink="http://www.w3.org/1999/xlink">
<g id="graph0" class="graph" transform="scale(1 1) rotate(0) translate(18 286.02)">
<title>BinaryMultiplierTM</title>
<polygon fill="white" stroke="none" points="-18,18 -18,-286.02 2061.33,-286.02 2061.33,18 -18,18"/>
<!-- start -->
<g id="node1" class="node">
<title>start</title>
<ellipse fill="#eef4ff" stroke="#355070" cx="1.8" cy="-220.52" rx="1.8" ry="1.8"/>
</g>
<!-- q_start -->
<g id="node4" class="node">
<title>q_start</title>
<ellipse fill="#eef4ff" stroke="#355070" cx="68.26" cy="-220.52" rx="27.66" ry="18"/>
<text xml:space="preserve" text-anchor="middle" x="68.26" y="-217.02" font-family="Arial" font-size="10.00">q_start</text>
</g>
<!-- start&#45;&gt;q_start -->
<g id="edge1" class="edge">
<title>start&#45;&gt;q_start</title>
<path fill="none" stroke="#34495e" d="M3.92,-220.52C7.23,-220.52 17.45,-220.52 28.75,-220.52"/>
<polygon fill="#34495e" stroke="#34495e" points="28.67,-224.02 38.67,-220.52 28.67,-217.02 28.67,-224.02"/>
</g>
<!-- q_accept -->
<g id="node2" class="node">
<title>q_accept</title>
<ellipse fill="#e8f7ee" stroke="#355070" cx="1450.54" cy="-37.52" rx="33.52" ry="33.52"/>
<ellipse fill="none" stroke="#355070" cx="1450.54" cy="-37.52" rx="37.52" ry="37.52"/>
<text xml:space="preserve" text-anchor="middle" x="1450.54" y="-34.02" font-family="Arial" font-size="10.00">q_accept</text>
</g>
<!-- q_reject -->
<g id="node3" class="node">
<title>q_reject</title>
<ellipse fill="#fdeaea" stroke="#355070" cx="846.14" cy="-218.52" rx="30.37" ry="30.37"/>
<ellipse fill="none" stroke="#355070" cx="846.14" cy="-218.52" rx="34.37" ry="34.37"/>
<text xml:space="preserve" text-anchor="middle" x="846.14" y="-215.02" font-family="Arial" font-size="10.00">q_reject</text>
</g>
<!-- q_find_star -->
<g id="node5" class="node">
<title>q_find_star</title>
<ellipse fill="#eef4ff" stroke="#355070" cx="192.91" cy="-220.52" rx="38.49" ry="18"/>
<text xml:space="preserve" text-anchor="middle" x="192.91" y="-217.02" font-family="Arial" font-size="10.00">q_find_star</text>
</g>
<!-- q_start&#45;&gt;q_find_star -->
<g id="edge2" class="edge">
<title>q_start&#45;&gt;q_find_star</title>
<path fill="none" stroke="#34495e" d="M96.18,-220.52C109.91,-220.52 127.04,-220.52 143.01,-220.52"/>
<polygon fill="#34495e" stroke="#34495e" points="142.84,-224.02 152.84,-220.52 142.84,-217.02 142.84,-224.02"/>
<text xml:space="preserve" text-anchor="middle" x="125.17" y="-222.47" font-family="Arial" font-size="9.00">başla</text>
</g>
<!-- q_find_star&#45;&gt;q_reject -->
<g id="edge23" class="edge">
<title>q_find_star&#45;&gt;q_reject</title>
<path fill="none" stroke="#34495e" d="M223.28,-231.93C253.97,-242.8 303.74,-257.52 348.24,-257.52 348.24,-257.52 348.24,-257.52 693.62,-257.52 731.6,-257.52 773.3,-245.89 803.31,-235.33"/>
<polygon fill="#34495e" stroke="#34495e" points="804.19,-238.73 812.39,-232.03 801.8,-232.16 804.19,-238.73"/>
<text xml:space="preserve" text-anchor="middle" x="520.32" y="-259.47" font-family="Arial" font-size="9.00">hata</text>
</g>
<!-- q_find_star&#45;&gt;q_find_star -->
<g id="edge3" class="edge">
<title>q_find_star&#45;&gt;q_find_star</title>
<path fill="none" stroke="#34495e" d="M180.82,-237.93C178.56,-247.61 182.59,-256.52 192.91,-256.52 198.87,-256.52 202.74,-253.55 204.5,-249.16"/>
<polygon fill="#34495e" stroke="#34495e" points="207.99,-249.59 204.93,-239.45 200.99,-249.28 207.99,-249.59"/>
<text xml:space="preserve" text-anchor="middle" x="192.91" y="-258.47" font-family="Arial" font-size="9.00">0/1, R</text>
</g>
<!-- q_return_left -->
<g id="node6" class="node">
<title>q_return_left</title>
<ellipse fill="#eef4ff" stroke="#355070" cx="349.24" cy="-180.52" rx="42.09" ry="18"/>
<text xml:space="preserve" text-anchor="middle" x="349.24" y="-177.02" font-family="Arial" font-size="10.00">q_return_left</text>
</g>
<!-- q_find_star&#45;&gt;q_return_left -->
<g id="edge4" class="edge">
<title>q_find_star&#45;&gt;q_return_left</title>
<path fill="none" stroke="#34495e" d="M227.02,-211.94C248.73,-206.32 277.45,-198.87 301.48,-192.64"/>
<polygon fill="#34495e" stroke="#34495e" points="302.23,-196.07 311.03,-190.17 300.47,-189.29 302.23,-196.07"/>
<text xml:space="preserve" text-anchor="middle" x="269.27" y="-207.23" font-family="Arial" font-size="9.00">* bulundu</text>
</g>
<!-- q_return_left&#45;&gt;q_return_left -->
<g id="edge5" class="edge">
<title>q_return_left&#45;&gt;q_return_left</title>
<path fill="none" stroke="#34495e" d="M335.7,-197.93C333.17,-207.61 337.68,-216.52 349.24,-216.52 355.92,-216.52 360.24,-213.55 362.22,-209.16"/>
<polygon fill="#34495e" stroke="#34495e" points="365.7,-209.61 362.7,-199.45 358.71,-209.26 365.7,-209.61"/>
<text xml:space="preserve" text-anchor="middle" x="349.24" y="-218.47" font-family="Arial" font-size="9.00">sola dön</text>
</g>
<!-- q_read_multiplicand -->
<g id="node7" class="node">
<title>q_read_multiplicand</title>
<ellipse fill="#eef4ff" stroke="#355070" cx="520.32" cy="-174.52" rx="61.49" ry="18"/>
<text xml:space="preserve" text-anchor="middle" x="520.32" y="-171.02" font-family="Arial" font-size="10.00">q_read_multiplicand</text>
</g>
<!-- q_return_left&#45;&gt;q_read_multiplicand -->
<g id="edge6" class="edge">
<title>q_return_left&#45;&gt;q_read_multiplicand</title>
<path fill="none" stroke="#34495e" d="M391.6,-179.06C408.44,-178.46 428.4,-177.75 447.48,-177.07"/>
<polygon fill="#34495e" stroke="#34495e" points="447.51,-180.58 457.38,-176.72 447.26,-173.58 447.51,-180.58"/>
<text xml:space="preserve" text-anchor="middle" x="425.08" y="-180.36" font-family="Arial" font-size="9.00">sol sınır</text>
</g>
<!-- q_read_multiplicand&#45;&gt;q_reject -->
<g id="edge24" class="edge">
<title>q_read_multiplicand&#45;&gt;q_reject</title>
<path fill="none" stroke="#34495e" d="M575.99,-182.59C595.77,-185.47 618.29,-188.7 638.81,-191.52 694.58,-199.21 758.92,-207.54 800.72,-212.89"/>
<polygon fill="#34495e" stroke="#34495e" points="800.02,-216.33 810.38,-214.12 800.91,-209.38 800.02,-216.33"/>
<text xml:space="preserve" text-anchor="middle" x="692.62" y="-207.66" font-family="Arial" font-size="9.00">hata</text>
</g>
<!-- q_read_multiplicand&#45;&gt;q_read_multiplicand -->
<g id="edge7" class="edge">
<title>q_read_multiplicand&#45;&gt;q_read_multiplicand</title>
<path fill="none" stroke="#34495e" d="M504.14,-192.31C501.39,-201.84 506.79,-210.52 520.32,-210.52 527.93,-210.52 532.97,-207.78 535.43,-203.68"/>
<polygon fill="#34495e" stroke="#34495e" points="538.9,-204.1 536.35,-193.81 531.93,-203.44 538.9,-204.1"/>
<text xml:space="preserve" text-anchor="middle" x="520.32" y="-212.47" font-family="Arial" font-size="9.00">0/1 oku</text>
</g>
<!-- q_read_multiplier -->
<g id="node8" class="node">
<title>q_read_multiplier</title>
<ellipse fill="#eef4ff" stroke="#355070" cx="692.62" cy="-135.52" rx="53.82" ry="18"/>
<text xml:space="preserve" text-anchor="middle" x="692.62" y="-132.02" font-family="Arial" font-size="10.00">q_read_multiplier</text>
</g>
<!-- q_read_multiplicand&#45;&gt;q_read_multiplier -->
<g id="edge8" class="edge">
<title>q_read_multiplicand&#45;&gt;q_read_multiplier</title>
<path fill="none" stroke="#34495e" d="M569.67,-163.45C590.43,-158.7 614.82,-153.11 636.3,-148.19"/>
<polygon fill="#34495e" stroke="#34495e" points="636.8,-151.67 645.76,-146.03 635.24,-144.85 636.8,-151.67"/>
<text xml:space="preserve" text-anchor="middle" x="610.31" y="-158.14" font-family="Arial" font-size="9.00">* oku</text>
</g>
<!-- q_read_multiplier&#45;&gt;q_reject -->
<g id="edge25" class="edge">
<title>q_read_multiplier&#45;&gt;q_reject</title>
<path fill="none" stroke="#34495e" d="M721.77,-150.94C745.26,-163.81 779.04,-182.31 805.31,-196.71"/>
<polygon fill="#34495e" stroke="#34495e" points="803.55,-199.73 814,-201.47 806.91,-193.6 803.55,-199.73"/>
<text xml:space="preserve" text-anchor="middle" x="775.69" y="-186.41" font-family="Arial" font-size="9.00">hata</text>
</g>
<!-- q_read_multiplier&#45;&gt;q_read_multiplier -->
<g id="edge9" class="edge">
<title>q_read_multiplier&#45;&gt;q_read_multiplier</title>
<path fill="none" stroke="#34495e" d="M677.83,-153.31C675.31,-162.84 680.24,-171.52 692.62,-171.52 699.59,-171.52 704.2,-168.78 706.45,-164.68"/>
<polygon fill="#34495e" stroke="#34495e" points="709.93,-165.08 707.29,-154.81 702.95,-164.48 709.93,-165.08"/>
<text xml:space="preserve" text-anchor="middle" x="692.62" y="-173.47" font-family="Arial" font-size="9.00">0/1 oku</text>
</g>
<!-- q_init_result -->
<g id="node9" class="node">
<title>q_init_result</title>
<ellipse fill="#eef4ff" stroke="#355070" cx="846.14" cy="-135.52" rx="41.19" ry="18"/>
<text xml:space="preserve" text-anchor="middle" x="846.14" y="-132.02" font-family="Arial" font-size="10.00">q_init_result</text>
</g>
<!-- q_read_multiplier&#45;&gt;q_init_result -->
<g id="edge10" class="edge">
<title>q_read_multiplier&#45;&gt;q_init_result</title>
<path fill="none" stroke="#34495e" d="M746.62,-135.52C761.85,-135.52 778.43,-135.52 793.58,-135.52"/>
<polygon fill="#34495e" stroke="#34495e" points="793.32,-139.02 803.32,-135.52 793.32,-132.02 793.32,-139.02"/>
<text xml:space="preserve" text-anchor="middle" x="775.69" y="-137.47" font-family="Arial" font-size="9.00">= oku</text>
</g>
<!-- q_seek_multiplier_bit -->
<g id="node10" class="node">
<title>q_seek_multiplier_bit</title>
<ellipse fill="#eef4ff" stroke="#355070" cx="1023.22" cy="-135.52" rx="64.64" ry="18"/>
<text xml:space="preserve" text-anchor="middle" x="1023.22" y="-132.02" font-family="Arial" font-size="10.00">q_seek_multiplier_bit</text>
</g>
<!-- q_init_result&#45;&gt;q_seek_multiplier_bit -->
<g id="edge11" class="edge">
<title>q_init_result&#45;&gt;q_seek_multiplier_bit</title>
<path fill="none" stroke="#34495e" d="M887.74,-135.52C905.31,-135.52 926.45,-135.52 946.71,-135.52"/>
<polygon fill="#34495e" stroke="#34495e" points="946.66,-139.02 956.66,-135.52 946.66,-132.02 946.66,-139.02"/>
<text xml:space="preserve" text-anchor="middle" x="922.95" y="-137.47" font-family="Arial" font-size="9.00">sonuç=0</text>
</g>
<!-- q_read_multiplier_bit -->
<g id="node11" class="node">
<title>q_read_multiplier_bit</title>
<ellipse fill="#eef4ff" stroke="#355070" cx="1265.91" cy="-205.52" rx="63.29" ry="18"/>
<text xml:space="preserve" text-anchor="middle" x="1265.91" y="-202.02" font-family="Arial" font-size="10.00">q_read_multiplier_bit</text>
</g>
<!-- q_seek_multiplier_bit&#45;&gt;q_read_multiplier_bit -->
<g id="edge12" class="edge">
<title>q_seek_multiplier_bit&#45;&gt;q_read_multiplier_bit</title>
<path fill="none" stroke="#34495e" d="M1055.37,-151.6C1070.33,-158.81 1088.7,-166.93 1105.87,-172.52 1135.57,-182.21 1169.35,-189.69 1198.12,-195.06"/>
<polygon fill="#34495e" stroke="#34495e" points="1197.33,-198.48 1207.8,-196.82 1198.59,-191.59 1197.33,-198.48"/>
<text xml:space="preserve" text-anchor="middle" x="1145.24" y="-194.12" font-family="Arial" font-size="9.00">sağdan sola bit seç</text>
</g>
<!-- q_restore_multiplier -->
<g id="node17" class="node">
<title>q_restore_multiplier</title>
<ellipse fill="#eef4ff" stroke="#355070" cx="1265.91" cy="-37.52" rx="60.58" ry="18"/>
<text xml:space="preserve" text-anchor="middle" x="1265.91" y="-34.02" font-family="Arial" font-size="10.00">q_restore_multiplier</text>
</g>
<!-- q_seek_multiplier_bit&#45;&gt;q_restore_multiplier -->
<g id="edge20" class="edge">
<title>q_seek_multiplier_bit&#45;&gt;q_restore_multiplier</title>
<path fill="none" stroke="#34495e" d="M1049.56,-118.84C1065.31,-108.96 1086.23,-96.73 1105.87,-88.02 1138.77,-73.44 1177.2,-61.12 1208.03,-52.3"/>
<polygon fill="#34495e" stroke="#34495e" points="1208.89,-55.69 1217.57,-49.62 1207,-48.95 1208.89,-55.69"/>
<text xml:space="preserve" text-anchor="middle" x="1145.24" y="-89.97" font-family="Arial" font-size="9.00">bit kalmadı</text>
</g>
<!-- q_skip_zero -->
<g id="node12" class="node">
<title>q_skip_zero</title>
<ellipse fill="#eef4ff" stroke="#355070" cx="1450.54" cy="-162.52" rx="41.19" ry="18"/>
<text xml:space="preserve" text-anchor="middle" x="1450.54" y="-159.02" font-family="Arial" font-size="10.00">q_skip_zero</text>
</g>
<!-- q_read_multiplier_bit&#45;&gt;q_skip_zero -->
<g id="edge13" class="edge">
<title>q_read_multiplier_bit&#45;&gt;q_skip_zero</title>
<path fill="none" stroke="#34495e" d="M1315.37,-194.11C1342.37,-187.76 1375.83,-179.88 1402.59,-173.58"/>
<polygon fill="#34495e" stroke="#34495e" points="1403.2,-177.03 1412.13,-171.33 1401.59,-170.22 1403.2,-177.03"/>
<text xml:space="preserve" text-anchor="middle" x="1358.45" y="-188.55" font-family="Arial" font-size="9.00">0 &#45;&gt; x</text>
</g>
<!-- q_copy_multiplicand -->
<g id="node13" class="node">
<title>q_copy_multiplicand</title>
<ellipse fill="#eef4ff" stroke="#355070" cx="1450.54" cy="-222.52" rx="62.84" ry="18"/>
<text xml:space="preserve" text-anchor="middle" x="1450.54" y="-219.02" font-family="Arial" font-size="10.00">q_copy_multiplicand</text>
</g>
<!-- q_read_multiplier_bit&#45;&gt;q_copy_multiplicand -->
<g id="edge15" class="edge">
<title>q_read_multiplier_bit&#45;&gt;q_copy_multiplicand</title>
<path fill="none" stroke="#34495e" d="M1326.71,-211.09C1343.43,-212.65 1361.77,-214.35 1379.05,-215.96"/>
<polygon fill="#34495e" stroke="#34495e" points="1378.44,-219.42 1388.72,-216.86 1379.09,-212.45 1378.44,-219.42"/>
<text xml:space="preserve" text-anchor="middle" x="1358.45" y="-216.99" font-family="Arial" font-size="9.00">1 &#45;&gt; y</text>
</g>
<!-- q_skip_zero&#45;&gt;q_seek_multiplier_bit -->
<g id="edge14" class="edge">
<title>q_skip_zero&#45;&gt;q_seek_multiplier_bit</title>
<path fill="none" stroke="#34495e" d="M1409.43,-159.98C1338.07,-155.45 1188.1,-145.93 1097.77,-140.19"/>
<polygon fill="#34495e" stroke="#34495e" points="1098.23,-136.72 1088.03,-139.58 1097.79,-143.7 1098.23,-136.72"/>
<text xml:space="preserve" text-anchor="middle" x="1265.91" y="-156.66" font-family="Arial" font-size="9.00">kaydırma artar</text>
</g>
<!-- q_add_partial -->
<g id="node14" class="node">
<title>q_add_partial</title>
<ellipse fill="#eef4ff" stroke="#355070" cx="1667.98" cy="-191.52" rx="44.35" ry="18"/>
<text xml:space="preserve" text-anchor="middle" x="1667.98" y="-188.02" font-family="Arial" font-size="10.00">q_add_partial</text>
</g>
<!-- q_copy_multiplicand&#45;&gt;q_add_partial -->
<g id="edge16" class="edge">
<title>q_copy_multiplicand&#45;&gt;q_add_partial</title>
<path fill="none" stroke="#34495e" d="M1507.3,-214.5C1540.42,-209.73 1582.16,-203.73 1614.66,-199.05"/>
<polygon fill="#34495e" stroke="#34495e" points="1614.84,-202.56 1624.24,-197.67 1613.85,-195.63 1614.84,-202.56"/>
<text xml:space="preserve" text-anchor="middle" x="1568.5" y="-212.66" font-family="Arial" font-size="9.00">parçalı çarpım yaz</text>
</g>
<!-- q_clear_work -->
<g id="node15" class="node">
<title>q_clear_work</title>
<ellipse fill="#eef4ff" stroke="#355070" cx="1828.67" cy="-158.52" rx="44.35" ry="18"/>
<text xml:space="preserve" text-anchor="middle" x="1828.67" y="-155.02" font-family="Arial" font-size="10.00">q_clear_work</text>
</g>
<!-- q_add_partial&#45;&gt;q_clear_work -->
<g id="edge17" class="edge">
<title>q_add_partial&#45;&gt;q_clear_work</title>
<path fill="none" stroke="#34495e" d="M1708.2,-183.37C1729.17,-179.01 1755.2,-173.59 1777.61,-168.93"/>
<polygon fill="#34495e" stroke="#34495e" points="1778.06,-172.42 1787.14,-166.95 1776.64,-165.56 1778.06,-172.42"/>
<text xml:space="preserve" text-anchor="middle" x="1748.32" y="-179.93" font-family="Arial" font-size="9.00">ikili topla</text>
</g>
<!-- q_write_result -->
<g id="node16" class="node">
<title>q_write_result</title>
<ellipse fill="#eef4ff" stroke="#355070" cx="1997.17" cy="-128.52" rx="46.15" ry="18"/>
<text xml:space="preserve" text-anchor="middle" x="1997.17" y="-125.02" font-family="Arial" font-size="10.00">q_write_result</text>
</g>
<!-- q_clear_work&#45;&gt;q_write_result -->
<g id="edge18" class="edge">
<title>q_clear_work&#45;&gt;q_write_result</title>
<path fill="none" stroke="#34495e" d="M1869.55,-151.34C1891.73,-147.34 1919.6,-142.32 1943.54,-138.01"/>
<polygon fill="#34495e" stroke="#34495e" points="1943.88,-141.5 1953.1,-136.29 1942.64,-134.61 1943.88,-141.5"/>
<text xml:space="preserve" text-anchor="middle" x="1912.02" y="-149.04" font-family="Arial" font-size="9.00">geçiciyi sil</text>
</g>
<!-- q_write_result&#45;&gt;q_seek_multiplier_bit -->
<g id="edge19" class="edge">
<title>q_write_result&#45;&gt;q_seek_multiplier_bit</title>
<path fill="none" stroke="#34495e" d="M1953.51,-122.15C1919.93,-117.69 1871.93,-112.52 1829.67,-112.52 1264.91,-112.52 1264.91,-112.52 1264.91,-112.52 1206.42,-112.52 1140.3,-119.34 1092.19,-125.55"/>
<polygon fill="#34495e" stroke="#34495e" points="1091.93,-122.05 1082.47,-126.83 1092.85,-128.99 1091.93,-122.05"/>
<text xml:space="preserve" text-anchor="middle" x="1568.5" y="-114.47" font-family="Arial" font-size="9.00">sonucu yaz</text>
</g>
<!-- q_restore_multiplier&#45;&gt;q_accept -->
<g id="edge22" class="edge">
<title>q_restore_multiplier&#45;&gt;q_accept</title>
<path fill="none" stroke="#34495e" d="M1326.96,-37.52C1351.04,-37.52 1378.42,-37.52 1401.18,-37.52"/>
<polygon fill="#34495e" stroke="#34495e" points="1401.11,-41.02 1411.11,-37.52 1401.11,-34.02 1401.11,-41.02"/>
<text xml:space="preserve" text-anchor="middle" x="1358.45" y="-39.47" font-family="Arial" font-size="9.00">kabul</text>
</g>
<!-- q_restore_multiplier&#45;&gt;q_restore_multiplier -->
<g id="edge21" class="edge">
<title>q_restore_multiplier&#45;&gt;q_restore_multiplier</title>
<path fill="none" stroke="#34495e" d="M1249.27,-55.31C1246.44,-64.84 1251.99,-73.52 1265.91,-73.52 1273.73,-73.52 1278.91,-70.78 1281.44,-66.68"/>
<polygon fill="#34495e" stroke="#34495e" points="1284.92,-67.1 1282.4,-56.81 1277.95,-66.43 1284.92,-67.1"/>
<text xml:space="preserve" text-anchor="middle" x="1265.91" y="-75.47" font-family="Arial" font-size="9.00">x&#45;&gt;0, y&#45;&gt;1</text>
</g>
</g>
</svg>
